<mxfile host="app.diagrams.net" agent="Mozilla/5.0 (Windows NT 10.0; Win64; x64) AppleWebKit/537.36 (KHTML, like Gecko) Chrome/134.0.0.0 Safari/537.36" version="26.0.16">
  <diagram name="Page-1" id="kaQXidAp-qlGF2AxuAGs">
    <mxGraphModel dx="1434" dy="738" grid="1" gridSize="10" guides="1" tooltips="1" connect="1" arrows="1" fold="1" page="1" pageScale="1" pageWidth="827" pageHeight="1169" math="0" shadow="0">
      <root>
        <mxCell id="0" />
        <mxCell id="1" parent="0" />
        <mxCell id="t5mt6X9h-aa8ggB3Qyt8-1" value="évaluation des performances de systèmes" style="rounded=1;whiteSpace=wrap;html=1;fillColor=#dae8fc;strokeColor=#6c8ebf;" vertex="1" parent="1">
          <mxGeometry x="40" y="60" width="210" height="60" as="geometry" />
        </mxCell>
        <mxCell id="t5mt6X9h-aa8ggB3Qyt8-2" value="conception de produit + développement durable" style="rounded=1;whiteSpace=wrap;html=1;fillColor=#dae8fc;strokeColor=#6c8ebf;" vertex="1" parent="1">
          <mxGeometry x="290" y="40" width="210" height="60" as="geometry" />
        </mxCell>
        <mxCell id="t5mt6X9h-aa8ggB3Qyt8-3" value="Prototypage et expérimentation" style="rounded=1;whiteSpace=wrap;html=1;fillColor=#dae8fc;strokeColor=#6c8ebf;" vertex="1" parent="1">
          <mxGeometry x="530" y="60" width="200" height="60" as="geometry" />
        </mxCell>
        <mxCell id="t5mt6X9h-aa8ggB3Qyt8-4" value="Analyse de systèmes" style="rounded=1;whiteSpace=wrap;html=1;fillColor=#dae8fc;strokeColor=#6c8ebf;" vertex="1" parent="1">
          <mxGeometry x="30" y="220" width="236" height="50" as="geometry" />
        </mxCell>
        <mxCell id="t5mt6X9h-aa8ggB3Qyt8-6" style="edgeStyle=orthogonalEdgeStyle;rounded=0;orthogonalLoop=1;jettySize=auto;html=1;exitX=0;exitY=0.5;exitDx=0;exitDy=0;entryX=1;entryY=0.5;entryDx=0;entryDy=0;" edge="1" parent="1" source="t5mt6X9h-aa8ggB3Qyt8-5" target="t5mt6X9h-aa8ggB3Qyt8-4">
          <mxGeometry relative="1" as="geometry" />
        </mxCell>
        <mxCell id="t5mt6X9h-aa8ggB3Qyt8-7" style="edgeStyle=orthogonalEdgeStyle;rounded=0;orthogonalLoop=1;jettySize=auto;html=1;exitX=0;exitY=0;exitDx=0;exitDy=0;entryX=0.75;entryY=1;entryDx=0;entryDy=0;" edge="1" parent="1" source="t5mt6X9h-aa8ggB3Qyt8-5" target="t5mt6X9h-aa8ggB3Qyt8-1">
          <mxGeometry relative="1" as="geometry" />
        </mxCell>
        <mxCell id="t5mt6X9h-aa8ggB3Qyt8-8" style="edgeStyle=orthogonalEdgeStyle;rounded=0;orthogonalLoop=1;jettySize=auto;html=1;exitX=0.75;exitY=0;exitDx=0;exitDy=0;entryX=0.75;entryY=1;entryDx=0;entryDy=0;" edge="1" parent="1" source="t5mt6X9h-aa8ggB3Qyt8-5" target="t5mt6X9h-aa8ggB3Qyt8-2">
          <mxGeometry relative="1" as="geometry" />
        </mxCell>
        <mxCell id="t5mt6X9h-aa8ggB3Qyt8-9" style="edgeStyle=orthogonalEdgeStyle;rounded=0;orthogonalLoop=1;jettySize=auto;html=1;exitX=1;exitY=0.5;exitDx=0;exitDy=0;entryX=0.25;entryY=1;entryDx=0;entryDy=0;" edge="1" parent="1" source="t5mt6X9h-aa8ggB3Qyt8-5" target="t5mt6X9h-aa8ggB3Qyt8-3">
          <mxGeometry relative="1" as="geometry" />
        </mxCell>
        <mxCell id="t5mt6X9h-aa8ggB3Qyt8-5" value="STI2D" style="text;html=1;align=center;verticalAlign=middle;whiteSpace=wrap;rounded=0;" vertex="1" parent="1">
          <mxGeometry x="420" y="190" width="60" height="30" as="geometry" />
        </mxCell>
        <mxCell id="t5mt6X9h-aa8ggB3Qyt8-16" style="edgeStyle=orthogonalEdgeStyle;rounded=0;orthogonalLoop=1;jettySize=auto;html=1;exitX=1;exitY=0.5;exitDx=0;exitDy=0;entryX=0;entryY=0.5;entryDx=0;entryDy=0;" edge="1" parent="1" source="t5mt6X9h-aa8ggB3Qyt8-10" target="t5mt6X9h-aa8ggB3Qyt8-15">
          <mxGeometry relative="1" as="geometry" />
        </mxCell>
        <mxCell id="t5mt6X9h-aa8ggB3Qyt8-10" value="Prototypage et expérimentation" style="rounded=1;whiteSpace=wrap;html=1;fillColor=#d5e8d4;strokeColor=#82b366;" vertex="1" parent="1">
          <mxGeometry x="14" y="340" width="200" height="60" as="geometry" />
        </mxCell>
        <mxCell id="t5mt6X9h-aa8ggB3Qyt8-14" style="edgeStyle=orthogonalEdgeStyle;rounded=0;orthogonalLoop=1;jettySize=auto;html=1;exitX=1;exitY=0.5;exitDx=0;exitDy=0;entryX=0;entryY=0.5;entryDx=0;entryDy=0;" edge="1" parent="1" source="t5mt6X9h-aa8ggB3Qyt8-11" target="t5mt6X9h-aa8ggB3Qyt8-12">
          <mxGeometry relative="1" as="geometry" />
        </mxCell>
        <mxCell id="t5mt6X9h-aa8ggB3Qyt8-11" value="Analyse de systèmes" style="rounded=1;whiteSpace=wrap;html=1;fillColor=#d5e8d4;strokeColor=#82b366;" vertex="1" parent="1">
          <mxGeometry x="14" y="420" width="206" height="50" as="geometry" />
        </mxCell>
        <mxCell id="t5mt6X9h-aa8ggB3Qyt8-18" style="edgeStyle=orthogonalEdgeStyle;rounded=0;orthogonalLoop=1;jettySize=auto;html=1;exitX=1;exitY=0.5;exitDx=0;exitDy=0;entryX=0;entryY=0.5;entryDx=0;entryDy=0;" edge="1" parent="1" source="t5mt6X9h-aa8ggB3Qyt8-12" target="t5mt6X9h-aa8ggB3Qyt8-17">
          <mxGeometry relative="1" as="geometry" />
        </mxCell>
        <mxCell id="t5mt6X9h-aa8ggB3Qyt8-12" value="Système de parking" style="rounded=1;whiteSpace=wrap;html=1;fillColor=#ffe6cc;strokeColor=#d79b00;" vertex="1" parent="1">
          <mxGeometry x="320" y="410" width="120" height="60" as="geometry" />
        </mxCell>
        <mxCell id="t5mt6X9h-aa8ggB3Qyt8-15" value="Projet fin première, système escape game" style="rounded=1;whiteSpace=wrap;html=1;fillColor=#ffe6cc;strokeColor=#d79b00;" vertex="1" parent="1">
          <mxGeometry x="320" y="320" width="220" height="60" as="geometry" />
        </mxCell>
        <mxCell id="t5mt6X9h-aa8ggB3Qyt8-17" value="Format TD" style="rounded=1;whiteSpace=wrap;html=1;fillColor=#f8cecc;strokeColor=#b85450;" vertex="1" parent="1">
          <mxGeometry x="510" y="450" width="120" height="60" as="geometry" />
        </mxCell>
      </root>
    </mxGraphModel>
  </diagram>
</mxfile>
